<?xml version="1.0" encoding="UTF-8"?>
<svg id="Ebene_2" data-name="Ebene 2" xmlns="http://www.w3.org/2000/svg" viewBox="0 0 512 469.54">
  <g id="Ebene_1-2" data-name="Ebene 1">
    <path d="m0,422.78V46.76c.86-3.2,1.59-6.44,2.61-9.58C10.1,14.15,30.32.04,56.07.03,146.37,0,236.68.01,326.98.01c42.99,0,85.97.03,128.96-.01,19.08-.02,35.18,6.66,45.87,22.68,4.75,7.12,6.88,16,10.19,24.08v376.02c-.87,3.19-1.6,6.42-2.62,9.56-7.46,23.03-27.69,37.16-53.45,37.17-71.64.04-143.28.01-214.92.01-61.65,0-123.29-.02-184.94,0-19.28,0-35.45-6.85-46.18-23.08-4.64-7.01-6.68-15.73-9.9-23.68ZM490.52,127.75c.08-1.87.22-3.49.22-5.12.01-22.16.04-44.33,0-66.49-.04-21.41-13.21-34.62-34.6-34.62-133.47-.02-266.95-.02-400.42,0-21.31,0-34.43,13.28-34.47,34.75-.04,22,0,43.99,0,65.99,0,1.78,0,3.55,0,5.49h469.28ZM127.74,256.4H21.56v84.82h106.17v-84.82Zm256.53,84.76h106.17v-84.82h-106.17v84.82ZM127.73,149.83H21.56v84.67h106.17v-84.67Zm362.67,84.75v-84.73h-106.11v84.73h106.11ZM127.64,448.04v-84.92H21.78c-.23.64-.43.94-.43,1.25-.05,15.98.36,31.97-.21,47.94-.78,21.9,15.32,36.61,35.57,35.91,21.78-.76,43.61-.17,65.41-.17h5.52Zm256.6,0c24.54,0,48.51.06,72.47-.02,20.65-.06,33.94-13.42,34.03-34.13.07-15.48.02-30.96,0-46.44,0-1.44-.18-2.89-.29-4.39h-106.22v84.99Zm-139.35-106.75v-84.94h-95.17v84.94h95.17Zm117.62-84.92h-95.45v84.71h95.45v-84.71Zm-213.03-21.88h95.47v-84.54h-95.47v84.54Zm117.5-.1h95.35v-84.53h-95.35v84.53Zm-22.12,213.4v-84.71h-95.29v84.71h95.29Zm22.14-.2h95.38v-84.53h-95.38v84.53Z"/>
  </g>
</svg>