<?xml version="1.0" encoding="UTF-8"?>
<svg id="Ebene_2" data-name="Ebene 2" xmlns="http://www.w3.org/2000/svg" viewBox="0 0 448.18 448.09">
  <defs>
    <style>
      .cls-1 {
        fill: #9b9b9b;
      }
    </style>
  </defs>
  <g id="Ebene_1-2" data-name="Ebene 1">
    <g>
      <path class="cls-1" d="m.14,119.37c0-27.33.02-54.67,0-82C.12,21.92,13.48,4.34,31.16,1.07,35.27.31,39.38,0,43.56,0c41.17.05,82.33-.09,123.5.09,15.81.07,28.34,6.56,36.23,20.74,3.4,6.1,4.72,12.87,4.74,19.7.12,53,.14,106,.03,159-.04,20.17-13.49,36.39-32.94,40.24-1.61.32-3.32.22-4.98.22-44.5,0-89,.06-133.5-.05-17.78-.04-36.26-18.22-36.41-36.07-.24-28.16-.06-56.33-.06-84.5,0,0-.02,0-.03,0Zm31.96.55c0,26.17-.01,52.33,0,78.5,0,7.26,2.32,9.6,9.49,9.61,41.33.02,82.66.02,123.99,0,7.87,0,10.47-2.54,10.48-10.51.04-51.66.04-103.33,0-154.99,0-7.88-2.63-10.45-10.6-10.46-41.16-.04-82.33-.04-123.49,0-7.37,0-9.87,2.55-9.87,9.87-.02,26,0,52,0,78Z"/>
      <path class="cls-1" d="m240.11,326.7c0-26.17.41-52.34-.14-78.49-.39-18.78,14.85-40.15,40.3-40.16,42.33-.02,84.66-.3,126.99.1,24.61.24,40.6,16.68,40.74,40.59.31,52.83.15,105.66.07,158.49-.03,20.42-12.76,36.05-32.65,40.46-1.6.36-3.31.29-4.97.29-43.66.02-87.33.12-130.99,0-21.86-.06-39.15-17.33-39.3-39.29-.19-27.33-.05-54.66-.05-81.99Zm32,1.22c0,26.17-.01,52.33,0,78.5,0,7.26,2.32,9.6,9.49,9.6,41.33.02,82.66.02,123.99,0,7.87,0,10.47-2.54,10.47-10.52.04-51.66.04-103.33,0-154.99,0-7.88-2.63-10.45-10.6-10.46-41.16-.04-82.33-.04-123.49,0-7.37,0-9.86,2.55-9.87,9.88-.02,26,0,52,0,78Z"/>
      <path class="cls-1" d="m343.58,176.01c-21.66,0-43.31.08-64.97-.03-14.61-.07-25.27-7.34-32.81-19.31-3.83-6.08-5.87-12.75-5.8-20.29.28-32.98.06-65.97.18-98.96.06-16.41,13.71-32.98,30.95-36.34C275.22.29,279.34,0,283.52,0c41.15.05,82.3,0,123.45.04,15.88.02,28.17,6.54,36.17,20.49,3.56,6.22,4.87,13.15,4.9,20.15.16,31.49.14,62.97.04,94.46-.06,20.49-12.55,35.93-32.56,40.52-1.6.37-3.31.24-4.97.32-.83.04-1.67.04-2.5.04-21.49,0-42.98,0-64.47,0v-.02Zm-.1-31.98c20.83,0,41.66.02,62.5-.01,7.32-.01,10.07-2.57,10.09-9.88.08-30.66.07-61.33,0-91.99-.02-7.36-2.67-10.06-9.96-10.07-41.66-.06-83.33-.06-124.99,0-6.31,0-8.99,2.86-8.99,9.23-.02,31.16-.03,62.33,0,93.49,0,6.78,2.5,9.22,9.36,9.23,20.67.03,41.33.01,62,.01Z"/>
      <path class="cls-1" d="m103.25,448.01c-21.5,0-43,.12-64.49-.04-16.1-.12-27.19-8.5-34.62-22.21C1.26,420.45-.03,414.76,0,408.53c.21-32.33.37-64.66,0-96.99-.21-17.88,14.28-39.18,38.93-39.39,43.16-.36,86.33-.29,129.49-.03,22.53.14,39.45,17.25,39.61,39.82.24,32,.28,64,0,95.99-.22,24.9-19.85,40.42-40.28,40.16-21.49-.27-43-.06-64.49-.06v-.02Zm.46-31.98c20.67,0,41.33.02,62-.01,7.65-.01,10.34-2.53,10.36-10.12.07-30.5.06-61,0-91.49-.01-7.67-2.62-10.33-10.21-10.34-41.5-.05-82.99-.05-124.49,0-6.62,0-9.25,2.78-9.26,9.47-.02,31-.02,62,0,92.99,0,7.18,2.35,9.49,9.6,9.49,20.67.02,41.33,0,62,0Z"/>
    </g>
  </g>
</svg>