<?xml version="1.0" encoding="UTF-8"?>
<svg id="Ebene_2" data-name="Ebene 2" xmlns="http://www.w3.org/2000/svg" viewBox="0 0 383.23 367.91">
  <g id="Ebene_1-2" data-name="Ebene 1">
    <path d="m0,156.27c.45-1.13.93-2.24,1.35-3.38,3.07-8.34,8.92-13.44,17.74-14.61,2.99-.4,4.12-1.61,4.87-4.4,4.35-16.23,11.1-31.44,19.82-45.79,2.49-4.1,5.32-5.12,8.51-3.09,3.03,1.93,3.48,4.92,1.15,8.77-8.32,13.72-14.61,28.3-18.99,43.73-.62,2.17-.55,3.59,1.62,4.9,1.66,1,3.24,2.5,4.21,4.16,1.71,2.92,3.72,3.03,6.8,2.4,20.57-4.2,41.39-6.32,62.37-6.68,2.47-.04,3.9-.75,5.36-2.94,5.25-7.84,12.86-11.26,22.21-9.97,2.7.37,4.02-.46,5.49-2.44,10.24-13.75,21.79-26.31,34.67-37.62,1.87-1.64,2.53-2.9,1.73-5.63-1.03-3.48-1.15-7.33-1.01-10.99.07-1.96-.29-2.89-1.91-3.82-17.34-10-35.6-17.83-55.16-23.49-3.39,5.74-8.1,9.99-14.75,11.63-6.62,1.64-12.87.68-19.33-3.62-4.91,5.13-9.79,10.41-14.92,15.44-1.38,1.36-3.58,2.78-5.29,2.65-1.72-.12-4.08-1.81-4.73-3.4-.63-1.54-.1-4.4,1.04-5.68,4.72-5.3,9.78-10.3,14.89-15.24,1.55-1.49,1.98-2.6,1.27-4.75-3.35-10.2.07-20.09,8.7-25.97,8.75-5.96,19.17-5.38,27.59,1.74,1.51,1.28,2.55,1.34,4.24.51C149.93,3.72,182.06-2.07,215.72.65c21.81,1.77,42.69,7.24,62.43,16.8,2.13,1.03,3.56,1.19,5.62-.4,7.71-5.96,17.34-6.2,25.49-.99,8.3,5.31,12.34,14.73,10.04,24.25-.59,2.44-.36,4.04,1.69,5.42.72.48,1.36,1.11,1.95,1.75,4.26,4.66,8.27,7.58,15.78,5.71,9.02-2.26,16.47,2.77,21.28,10.65,4.76,7.81,4.69,15.93-.23,23.67-1.43,2.24-1.43,3.68-.17,5.92,19.65,35.05,26.95,72.65,22.29,112.47-5.29,45.16-25.16,83.01-58.32,113.97-1.48,1.38-1.8,2.48-1.19,4.49,3.09,10.22-.31,19.89-8.77,25.67-8.47,5.79-18.63,5.41-27.04-1.21-1.56-1.23-2.63-1.18-4.28-.35-30.82,15.57-63.53,21.57-97.84,18.76-22.96-1.88-44.86-7.85-65.43-18.33-2.44-1.25-4.02-1.15-6.27.41-7.74,5.35-17.46,5.06-25.23-.4-7.77-5.46-11.37-14.52-9.1-23.58.59-2.36.2-3.73-1.62-5.44-34.53-32.36-54.23-72.11-58.93-119.22-.51-5.08-.48-10.21-.85-15.3-.08-1.06-.58-2.74-1.28-2.99C7.37,179.48,2.61,173.38,0,165.25,0,162.25,0,159.26,0,156.27Zm156.28-1c-1.93,7.41-5.37,12.42-10.95,15.84-5.72,3.5-11.92,3.91-18.26,2.57-.32.52-.54.81-.7,1.14-19.94,41.26-27.64,84.74-23.79,130.35.17,2.05,1.07,2.69,2.92,3.07,5.06,1.05,9.33,3.64,12.4,7.77,1.48,1.99,2.71,1.95,4.67,1.11,8.8-3.79,17.79-7.16,26.45-11.25,47.33-22.36,87.31-54.09,120.04-94.93.68-.85.87-2.81.37-3.77-2.42-4.56-3.58-9.35-2.86-14.42.35-2.45-.46-3.43-2.56-4.46-20.52-10.08-41.74-18.32-63.94-23.76-14.36-3.52-28.93-6.16-43.8-9.27Zm134.4,63.47c-3.13-.54-5.74-.55-7.98-1.47-2.77-1.14-4.09-.22-5.8,1.89-39.25,48.38-87.85,84.03-145.93,106.63-4.87,1.9-9.32,3.33-8.51,9.82.08.68-.27,1.41-.44,2.22.67.38,1.18.71,1.73.97,50.82,24.09,101.67,24.14,152.56.17,2.05-.96,2.49-2.01,2.25-4.26-1.31-12.1,4.85-21.56,16.36-25.25,1.87-.6,2.6-1.46,2.67-3.32.33-8.97.74-17.93,1.1-26.9.16-3.87,2.16-6.12,5.52-6.18,3.37-.06,5.75,2.22,5.66,5.99-.22,9.1-.54,18.19-1.12,27.27-.16,2.46.02,4.04,2.56,4.85,1.14.37,2.17,1.11,3.32,1.72,17.48-15.76,31.12-34.13,41.13-55.24,1.04-2.19-.02-3.16-1.28-4.42-14.24-14.22-29.64-27.05-46.03-38.73-3.06-2.18-5.13-2.41-7.37.77.1.41.23.88.33,1.36,1.89,9.27,3.93,18.51,5.59,27.82.71,4-1.92,6.76-5.59,6.66-3.15-.08-4.85-2.11-5.64-6.32-1.63-8.68-3.36-17.35-5.06-26.05Zm-205.26,93.88c5.12-1.57,6.45-4.59,5.96-9.79-2.19-23.23-.76-46.33,3.67-69.24,4.24-21.89,11.18-42.87,20.83-62.96.54-1.13,1.18-2.78.75-3.72-2.02-4.44-4.4-8.72-7.17-14.05-20.77,2.4-42.4,4.89-63.91,7.37-.25,1.54-.41,2.26-.48,3-.79,8.65-5.34,14.69-13.22,17.96-2.98,1.23-3.7,2.78-3.56,5.77,1.7,34.72,12.77,66.33,31.47,95.41,7.25,11.26,15.79,21.47,25.65,30.26ZM312.08,52.72c-13.02,8.36-23.87,6.51-33.93-5.24-.63-.73-2.63-.83-3.77-.49-17.34,5.27-33.81,12.56-49.54,21.56-2.04,1.17-2.54,2.35-2.42,4.69.17,3.42.02,7.03-.97,10.26-.86,2.82-.18,4.19,1.81,5.96,24.21,21.52,43.71,46.74,58.27,75.66,2.49,4.95,4.62,8.96,11.18,8.1,1.71-.23,2.83-.08,3.83-1.78,13.62-23.18,24.44-47.59,32.37-73.28.62-2.01.36-3.05-1.41-4.3-4.89-3.45-7.76-8.29-8.96-14.17-1.28-6.3.29-12.04,3.57-17.6-3.41-3.19-6.66-6.23-10.03-9.38Zm49.56,190.4c.14-.37.47-1.17.77-1.98,5.2-14.52,8.2-29.49,9.19-44.87,2.19-34.31-4.68-66.64-21.45-96.74-.55-.99-2.34-2.41-2.76-2.18-2.42,1.33-6.38-1.01-7.55,3.25-.95,3.48-2.1,6.91-3.27,10.32-7.76,22.83-17.72,44.64-29.87,65.47-.67,1.14-1.13,3.35-.51,4.14,5.18,6.58,6.37,13.88,4.78,20.92,17.13,14.09,33.85,27.84,50.67,41.67Zm-211.53-107.62c1.4,2.24,3.02,4.21,3.95,6.46.92,2.21,2.31,2.77,4.48,3.11,9.71,1.51,19.46,2.93,29.08,4.93,28.54,5.93,55.8,15.6,81.94,28.49,1.16.57,2.94.41,4.2-.05.45-.17.68-2.43.23-3.37-14.46-30.02-34.2-56.06-59.19-78.1-.82-.73-2.79-1.04-3.75-.58-7.38,3.55-14.61,3.5-21.94-.09-.83-.41-2.49-.28-3.16.3-13.42,11.63-25.35,24.64-35.82,38.9Zm66.57-75.16c16.62-9.8,33.94-17.64,52.15-23.47q5.96-1.91,6.35-8.4c-1.61-.78-3.26-1.63-4.95-2.39-19.54-8.78-40.03-13.61-61.41-14.64-29.32-1.41-57.26,4.08-83.65,17.05-1.09.54-2.27,2.37-2.15,3.47.12,1.13,1.59,2.58,2.8,3.05,11.81,4.62,23.83,8.74,35.51,13.67,7.76,3.27,15.06,7.61,22.59,11.48,11.64-8.78,20.46-8.79,32.77.18ZM11.19,160.52c-.02,6.33,5.04,11.5,11.26,11.51,6.5.01,11.33-4.74,11.43-11.25.1-6.64-4.81-11.74-11.36-11.78-6.09-.04-11.32,5.28-11.33,11.52Zm122.4,2.59c6.61.04,11.61-4.96,11.58-11.56-.03-6.2-5.3-11.35-11.54-11.31-6.24.05-11.48,5.31-11.41,11.46.08,6.47,4.96,11.37,11.37,11.41Zm166.7,32.28c-.05-6.48-4.9-11.36-11.33-11.41-6.18-.05-11.32,5.15-11.34,11.47-.03,6.3,5.09,11.59,11.22,11.62,6.56.03,11.5-5.01,11.46-11.68ZM89.02,35.29c0,6.21,5.25,11.46,11.42,11.44,6.2-.02,11.39-5.28,11.35-11.51-.04-6.7-4.96-11.57-11.6-11.47-6.4.09-11.17,5.02-11.16,11.54Zm111.46,29.59c-6.25-.19-11.55,4.76-11.8,11.02-.24,6.18,4.79,11.69,10.93,11.97,6.45.3,11.74-4.72,11.92-11.29.17-6.39-4.66-11.51-11.05-11.71Zm100.23,255.05c-6.6.08-11.37,5.11-11.21,11.83.15,6.27,5.34,11.17,11.7,11.02,6.27-.14,11.18-5.35,11.03-11.7-.15-6.51-5.03-11.23-11.52-11.15Zm-14.79-285.05c-.09,6.64,4.85,11.72,11.4,11.72,6.44,0,11.28-4.81,11.4-11.34.12-6.24-4.97-11.49-11.21-11.57-6.31-.08-11.51,4.94-11.59,11.18ZM89.02,330.15c-.08,6.31,4.89,11.56,11.08,11.73,6.37.17,11.7-5.07,11.7-11.49,0-6.18-5.22-11.54-11.31-11.61-6.14-.07-11.39,5.14-11.47,11.37ZM352.05,75.43c-.01-6.37-5.02-11.43-11.32-11.41-6.52.02-11.33,4.78-11.4,11.27-.07,6.66,4.82,11.63,11.45,11.64,6.21,0,11.28-5.17,11.27-11.5Z"/>
  </g>
</svg>