<?xml version="1.0" encoding="UTF-8"?>
<svg id="Ebene_2" data-name="Ebene 2" xmlns="http://www.w3.org/2000/svg" viewBox="0 0 340.77 408.81">
  <g id="Ebene_1-2" data-name="Ebene 1">
    <g>
      <path d="m177.17,0c5.31,1.06,10.66,1.98,15.93,3.22,36.21,8.49,67.15,43.05,72.02,80,3.21,24.33-.33,47.33-14.07,67.9-18.25,27.33-43.51,43.24-76.92,45.5-43.87,2.97-79.94-22.84-96.32-57.86-15.38-32.89-9.16-76.71,14.95-103.97,14.8-16.73,32.63-28.26,54.71-32.76,3.76-.76,7.54-1.36,11.32-2.04,6.12,0,12.24,0,18.36,0Z"/>
      <path d="m170.28,408.8c-32.33,0-64.66-.01-96.99,0-16.58,0-32.24-3.26-45.98-13.1-15.61-11.16-24.81-26.49-26.42-45.43-2.88-33.81,1.06-66.98,13.76-98.61,7.51-18.72,18.75-34.86,37.16-44.85,11.72-6.36,24.32-9.42,37.52-9.16,4.12.08,8.47,2.12,12.23,4.15,6.06,3.29,11.68,7.38,17.56,11.02,34.18,21.15,68.39,21.17,102.58.03,6.44-3.98,12.83-8.06,19.21-12.15,6.85-4.39,14.34-3.41,21.7-2.41,26.55,3.62,45.28,18.28,57.93,41.45,11.29,20.68,16.36,43.15,18.64,66.3,1.16,11.76,1.71,23.63,1.57,35.44-.43,36.42-24.86,62.81-61.14,66.58-4.36.45-8.75.7-13.13.7-32.06.06-64.13.03-96.19.03Z"/>
    </g>
  </g>
</svg>