<?xml version="1.0" encoding="UTF-8"?>
<svg id="Ebene_2" data-name="Ebene 2" xmlns="http://www.w3.org/2000/svg" viewBox="0 0 511.01 431.95">
  <g id="Ebene_1-2" data-name="Ebene 1">
    <g>
      <path d="m0,411.02V143.02c4.68-10.36,11.72-18.27,23.33-20.48,5.01-.95,10.28-.61,15.44-.68,6.93-.1,13.87-.02,21.17-.02,0-10.72-.13-20.7.03-30.67.27-16.86,13.39-29.91,30.3-30.18,8.5-.14,17-.02,25.5-.05,1.59,0,3.17-.15,5.05-.24,0-10.06-.08-19.54.02-29.02C121.02,12.96,133.99.07,152.77.04c34.66-.06,69.33-.06,103.99,0,13.43.02,23.2,6.19,29.21,18.19,5.06,10.12,10.23,20.2,14.93,30.48,1.91,4.17,4.21,5.69,8.94,5.68,56-.19,111.99-.15,167.99-.11,20.3.02,33.12,12.88,33.16,33.1.02,12.17,0,24.33,0,36.5,0,50.83,0,101.66,0,152.49,0,21.3-12.49,33.7-33.91,33.72-7.67,0-15.33-.02-23,.02-1.26,0-2.52.26-4,.43,0,9.19.01,18.01,0,26.83-.03,21.06-12.53,33.62-33.5,33.64-8.95.01-17.9,0-27.14,0-.1,2.13-.23,3.76-.24,5.39-.02,7.67.03,15.33-.02,23-.12,19.66-12.94,32.51-32.64,32.52-90.49.04-180.99.02-271.48.02-17.83,0-35.66.01-53.5,0-14.04-.01-24.19-6.23-30.23-19.01-.33-.69-.88-1.28-1.33-1.91Zm29.36-9.56h329.31v-195.32c-2.4,0-4.38,0-6.36,0-55.99,0-111.98-.05-167.97.03-14.14.02-24.13-6.21-30.3-18.84-5.04-10.32-10.25-20.55-15.12-30.95-1.53-3.26-3.28-4.57-7.08-4.55-32.49.18-64.99.1-97.48.12-1.61,0-3.23.16-4.99.26v249.25ZM151.07,60.95c14.98,0,29.44.11,43.9-.03,14.35-.14,24.43,6.24,30.64,19.09,4.92,10.19,10.15,20.23,14.89,30.5,1.63,3.54,3.55,4.75,7.5,4.74,56.15-.15,112.29-.11,168.44-.09,20.99,0,33.62,12.6,33.63,33.56.02,41.65,0,83.3,0,124.96v5.94h30.53V84.46c-2.45,0-4.58,0-6.72,0-55.48,0-110.96-.11-166.44.07-15.37.05-26.01-6.39-32.45-20.33-4.6-9.96-9.79-19.66-14.42-29.61-1.53-3.29-3.32-4.6-7.1-4.58-32.49.17-64.98.1-97.47.1h-4.94v30.85Zm268.66,84.32h-6.24c-55.66,0-111.32-.13-166.98.09-15.2.06-25.72-6.27-32.18-19.94-4.83-10.23-10.12-20.25-14.9-30.5-1.42-3.04-3.09-4-6.4-3.98-32.83.13-65.66.08-98.49.09-1.43,0-2.86.19-4.2.29v30.52c15.16,0,29.96.02,44.76,0,13.52-.02,23.17,6.12,29.15,18.16,5.25,10.58,10.64,21.1,15.62,31.81,1.6,3.43,3.57,4.34,7.21,4.33,55.99-.12,111.99.28,167.97-.28,19.48-.19,34.66,13.66,34.33,34.2-.67,41.48-.2,82.99-.2,124.48v6.13h30.54v-195.4Z"/>
      <path d="m295.45,355.51c-.55-8.14,1.62-14.62,9.27-18,8.77-3.87,19.01,1.73,20.42,11.27.58,3.91.56,7.98.28,11.94-.58,8.42-6.95,14.34-14.98,14.33-7.99-.02-14.26-6.01-14.97-14.41-.15-1.82-.02-3.66-.02-5.13Z"/>
      <path d="m251.32,355.5c.33-2.96.26-6.04,1.07-8.87,1.79-6.26,8.52-10.73,14.89-10.36,6.71.39,12.74,5.04,13.76,11.69.75,4.86.82,9.99.15,14.85-1.07,7.73-8.02,12.74-15.74,12.22-7.32-.49-13.14-6.38-13.74-14.01-.14-1.82-.02-3.66-.02-5.49-.12,0-.24-.02-.36-.03Z"/>
    </g>
  </g>
</svg>