<?xml version="1.0" encoding="UTF-8"?>
<svg id="Ebene_2" data-name="Ebene 2" xmlns="http://www.w3.org/2000/svg" viewBox="0 0 383.45 383.38">
  <g id="Ebene_1-2" data-name="Ebene 1">
    <g>
      <path d="m0,301.79c0-73.36,0-146.72,0-220.08.23-.82.58-1.63.68-2.47C5.87,34.81,43.74.38,88.49.21c68.63-.27,137.25-.28,205.88,0,48.84.19,88.62,39.84,88.88,88.63.32,59.25.22,118.51,0,177.77-.08,22.11-7.99,41.5-23.26,57.52-11.71,12.28-23.81,24.18-35.98,36-10.3,10.01-22.6,16.72-36.53,20.3-4.68,1.2-9.46,1.99-14.2,2.96H81.61c-.82-.23-1.62-.59-2.46-.68-37.56-4.33-68.91-32.66-76.95-69.62-.82-3.75-1.47-7.53-2.2-11.3Zm353.39-51.46v-4.07c0-51.77.03-103.54-.01-155.31-.03-34.55-26.35-60.86-60.94-60.88-67.13-.05-134.25-.04-201.38,0-34.83.02-61.1,26.29-61.11,61.08-.03,66.99-.03,133.98,0,200.97.01,35.05,26.23,61.29,61.27,61.32,51.65.04,103.31,0,154.96,0,1.3,0,2.6,0,4.07,0,0-14.33,0-28.05,0-41.77,0-8.44,1.18-16.71,4.71-24.42,10.94-23.86,29.7-36.2,55.89-36.86,13.96-.35,27.94-.06,42.53-.06Zm-73.19,100.98c8.92-2.31,16.44-6.36,22.65-12.39,12.16-11.8,24.13-23.79,35.94-35.93,6.05-6.22,10.09-13.74,12.37-22.27-.61-.2-.93-.4-1.26-.4-13.58,0-27.17-.39-40.73.12-15.52.59-27.16,11.56-28.58,26.84-.77,8.28-.32,16.67-.38,25.01-.04,6.2,0,12.39,0,19.01Z"/>
      <path d="m191.69,118.38c-29.18,0-58.36.03-87.54-.02-11.04-.02-18.34-9.69-15-19.71,1.9-5.69,7.08-9.73,13.09-10.18.74-.06,1.5-.04,2.24-.04,58.11,0,116.23,0,174.34,0,7.42,0,13.03,3.64,15.27,9.81,3.6,9.91-3.61,20.06-14.47,20.1-23.2.09-46.39.03-69.59.03-6.11,0-12.22,0-18.33,0Z"/>
      <path d="m191.73,206.71c-29.31,0-58.61.05-87.92-.02-10.77-.03-17.94-9.77-14.67-19.66,1.88-5.7,7.06-9.75,13.06-10.21.62-.05,1.25-.04,1.87-.04,58.36,0,116.73,0,175.09,0,7.27,0,12.91,3.87,15.02,10.13,3.33,9.88-3.81,19.73-14.53,19.77-21.57.09-43.15.03-64.72.03-7.73,0-15.46,0-23.2,0Z"/>
      <path d="m147.5,265.11c14.34,0,28.67-.02,43.01,0,9.42.02,16.13,6.27,16.13,14.96,0,8.69-6.71,14.95-16.13,14.96-28.67.02-57.34.02-86.01,0-9.42,0-16.12-6.28-16.12-14.97,0-8.69,6.71-14.94,16.13-14.96,14.34-.03,28.67,0,43.01,0Z"/>
    </g>
  </g>
</svg>