<?xml version="1.0" encoding="UTF-8"?>
<svg width="923px" height="412px" viewBox="0 0 923 412" version="1.1" xmlns="http://www.w3.org/2000/svg" xmlns:xlink="http://www.w3.org/1999/xlink">
    <!-- Generator: Sketch 52.1 (67048) - http://www.bohemiancoding.com/sketch -->
    <title>Path</title>
    <desc>Created with Sketch.</desc>
    <g id="Page-1" stroke="none" stroke-width="1" fill="none" fill-rule="evenodd">
        <polyline id="Path" stroke="#EE7B0E" stroke-width="2" points="1 369.6 6 379.3 11 359.8 16 355 21 345.2 26 369.6 31 325.7 36 320.8 41 335.4 46 350.1 51 355 56 345.2 61 330.6 65 306.2 70 315.9 75 291.5 80 276.9 85 345.2 90 315.9 95 325.7 100 345.2 105 340.3 110 364.7 115 359.8 120 374.5 124 394 129 389.1 134 394 139 398.9 144 408.6 149 379.3 154 369.6 159 345.2 164 335.4 169 291.5 174 272 179 228.1 184 262.3 188 281.8 193 203.7 198 179.4 203 208.6 208 233 213 223.3 218 237.9 223 242.8 228 267.2 233 291.5 238 267.2 243 252.5 247 228.1 252 194 257 208.6 262 203.7 267 164.7 272 145.2 277 150.1 282 155 287 135.5 292 145.2 297 106.2 302 115.9 307 135.5 311 111.1 316 96.4 321 86.7 326 106.2 331 125.7 336 208.6 341 276.9 346 330.6 351 345.2 356 330.6 361 296.4 366 301.3 370 257.4 375 272 380 281.8 385 286.7 390 267.2 395 247.6 400 252.5 405 218.4 410 194 415 174.5 420 155 425 140.3 430 135.5 434 96.4 439 106.2 444 81.8 449 57.4 454 67.2 459 91.6 464 81.8 469 91.6 474 81.8 479 76.9 484 106.2 489 101.3 493 115.9 498 86.7 503 67.2 508 72 513 86.7 518 62.3 523 57.4 528 37.9 533 28.1 538 42.8 543 37.9 548 8.6 553 33 557 13.5 562 42.8 567 8.6 572 28.1 577 18.4 582 23.3 587 33 592 76.9 597 86.7 602 67.2 607 47.7 612 91.6 616 76.9 621 135.5 626 130.6 631 111.1 636 115.9 641 76.9 646 47.7 651 52.5 656 52.5 661 52.5 666 72 671 76.9 676 67.2 680 91.6 685 57.4 690 106.2 695 130.6 700 120.8 705 135.5 710 145.2 715 174.5 720 169.6 725 159.8 730 145.2 735 150.1 739 164.7 744 179.4 749 169.6 754 189.1 759 189.1 764 184.2 769 179.4 774 150.1 779 140.3 784 106.2 789 120.8 794 111.1 799 140.3 803 125.7 808 135.5 813 140.3 818 115.9 823 67.2 828 57.4 833 52.5 838 91.6 843 91.6 848 76.9 853 86.7 858 72 862 52.5 867 18.4 872 33 877 28.1 882 3.8 887 18.4 892 18.4 897 42.8 902 8.6 907 23.3 912 28.1 917 23.3 922 37.9"></polyline>
    </g>
</svg>