<?xml version="1.0" encoding="UTF-8"?>
<svg id="Ebene_2" data-name="Ebene 2" xmlns="http://www.w3.org/2000/svg" viewBox="0 0 383.52 351.29">
  <g id="Ebene_1-2" data-name="Ebene 1">
    <g>
      <path d="m0,117.18c3.01-6.78,7.69-11.28,15.59-11.31,6.01-.02,10.45,2.77,13.7,7.69,3.76,5.69,7.54,11.37,11.12,16.76,4.07-10.42,7.33-21.11,12.26-30.96C80.06,44.59,124.03,11.42,184.59,1.98c89.03-13.87,176.86,46.28,195.4,139.18,17.56,87.98-31.9,173.16-116.97,201.57-71.57,23.91-153.31-3.63-196.16-66.07-5.43-7.92-3.9-17.59,3.6-22.81,7.33-5.1,16.89-3.34,22.39,4.36,21.33,29.85,49.7,49.22,85.49,57.52,73.63,17.09,149.15-28.88,168.21-102.32,19.7-75.94-24.03-152.43-99.83-173.49-76.67-21.3-155,24.57-175.14,100.59-.15.58-.22,1.17-.43,2.29,8.37-5.63,16.27-11.05,24.28-16.3,5.74-3.76,12.57-3.62,17.91.24,5.62,4.06,8.11,9.78,6.24,16.35-1.02,3.57-3.41,7.54-6.38,9.62-17.45,12.24-35.19,24.07-52.96,35.85-8.29,5.49-17.54,3.19-23.3-5.53C24.58,164.35,12.31,145.62,0,126.91c0-3.24,0-6.49,0-9.73Z"/>
      <path d="m191.64,135.22c0-13.47-.08-26.94.03-40.4.06-7.96,5.74-14.44,13.4-15.69,7.61-1.24,15.29,3.32,17.58,10.75.72,2.33.93,4.9.94,7.36.07,22.57.1,45.14-.03,67.71-.02,3.01.91,5.06,3.01,7.15,13.42,13.38,26.73,26.88,40.03,40.38,4.59,4.66,6.11,10.25,4.05,16.5-1.96,5.96-6.28,9.47-12.42,10.6-5.27.97-10.02-.49-13.75-4.22-16.22-16.23-32.34-32.55-48.44-48.9-3.22-3.27-4.44-7.38-4.42-11.95.04-13.09.02-26.19.02-39.28Z"/>
    </g>
  </g>
</svg>