<?xml version="1.0" encoding="UTF-8"?>
<svg id="Ebene_2" data-name="Ebene 2" xmlns="http://www.w3.org/2000/svg" viewBox="0 0 383.63 383.3">
  <g id="Ebene_1-2" data-name="Ebene 1">
    <path d="m202.9,383.3h-22.46c-2.45-.29-4.9-.6-7.36-.87-39.76-4.27-75.22-18.84-105.6-44.95-35.02-30.11-56.77-67.94-64.62-113.57C1.66,216.95.94,209.9,0,202.89c0-7.49,0-14.97,0-22.46.22-1.2.57-2.39.65-3.6.92-13.61,3.5-26.92,7.36-39.98C36.29,41.28,134.57-16.86,231.95,4.36c113.54,24.75,180.08,143.31,139.91,251.85-25.46,68.8-75.73,110.09-147.91,124.22-6.94,1.36-14.03,1.94-21.04,2.88ZM63.98,84.01c-21,22.32-40.31,69.8-38.61,95.49,1.17,0,2.38,0,3.59,0,16.08,0,32.17-.09,48.25.08,3.23.03,4.13-.86,4.4-4.11,1-12.28,1.97-24.6,3.8-36.77,1.72-11.41,4.52-22.65,6.81-33.81-9.26-6.85-18.65-13.79-28.24-20.89Zm28.55,194.19c0,.08.08-.18.02-.4-6.5-23.25-10.23-46.94-11.06-71.07-.09-2.65-1.37-2.94-3.55-2.94-16.58.06-33.16.03-49.74.04-.96,0-1.93.15-3.26.26,2.9,36.19,15.92,67.87,38.9,95.31,9.74-7.2,19.13-14.14,28.69-21.21Zm265.89-98.84c-2.97-36.4-15.96-68.09-38.78-95.3-9.49,6.77-18.54,13.14-27.45,19.71-.79.58-1.13,2.58-.83,3.68,6.1,22.45,9.61,45.3,10.45,68.54.1,2.75.97,3.58,3.74,3.56,16.58-.12,33.16-.06,49.75-.07.85,0,1.7-.07,3.12-.13Zm-56.15,24.65c-.6,7.51-1.08,14.69-1.75,21.86-1.6,17.02-4.77,33.76-9.23,50.26-.26.97-.11,2.7.52,3.16,9.12,6.68,18.36,13.21,27.84,19.97,22.84-27.37,35.88-59.04,38.74-95.25h-56.12ZM114.98,116.16c-5.64,21-8.4,41.77-9.28,62.99h73.53v-47.49c-22.28-1.54-43.49-6.57-64.25-15.5Zm64.27,135.49v-47.56h-73.56c.9,21.35,3.65,42.13,9.29,63.04,20.63-8.82,41.93-13.97,64.27-15.48Zm98.15-72.33c.77-12.82-4.89-51.2-9.31-62.99-20.46,8.78-41.88,13.82-64.01,15.38v47.61h73.31Zm.2,24.76h-73.59v47.6c22.35,1.37,43.69,6.66,64.36,15.39,5.59-21,8.41-41.74,9.23-62.99Zm-73.58,72.09v80.41c19.88-3.13,51.1-39.88,56.31-66.21-17.81-8.05-36.47-12.76-56.31-14.2Zm.04-249.74v80.72c19.91-1.49,38.67-6.16,56.73-14.45-1.46-3.45-2.67-6.58-4.08-9.61-8.09-17.42-17.79-33.7-32.92-46.09-5.8-4.75-12.14-8.54-19.73-10.56Zm-24.78.29c-20.03,3.32-51.66,40.59-56.26,66.23,17.8,8.07,36.48,12.71,56.26,14.2V26.72Zm.03,249.9c-11.06-1.3-46.85,7.79-56.84,14.54,3.05,6.44,5.91,13.06,9.27,19.42,7.68,14.58,17.04,27.89,30.5,37.83,5.1,3.77,10.58,6.88,17.08,8.44v-80.23Zm103.99-195.98c5.95-4.52,12.25-9.32,18.87-14.36-13.02-11.47-26.87-20.41-41.59-26.97,7.4,13.45,14.92,27.13,22.72,41.33Zm-22.76,263.44c14.83-6.75,28.77-15.57,41.62-27.09-6.78-5.13-13.08-9.88-18.88-14.27-7.79,14.16-15.31,27.84-22.74,41.36ZM122.74,39.3c-14.78,6.68-28.72,15.52-41.56,27.03,6.72,5.08,13.03,9.85,18.87,14.27,7.74-14.1,15.26-27.79,22.69-41.31Zm-41.25,277.47c7.14,8.4,34.88,26.06,40.97,26.78-7.22-13.17-14.73-26.86-22.41-40.85-5.9,4.47-12.22,9.26-18.57,14.07Z"/>
  </g>
</svg>