<?xml version="1.0" encoding="UTF-8"?>
<svg id="Ebene_2" data-name="Ebene 2" xmlns="http://www.w3.org/2000/svg" viewBox="0 0 464.01 464.1">
  <g id="Ebene_1-2" data-name="Ebene 1">
    <g>
      <path d="m48,415.88h368c0-1.92,0-3.85,0-5.77,0-58.99-.02-117.97.02-176.96.01-14.39,10.53-25.15,24.22-25.04,12.51.11,22.94,10.01,23.69,22.53.1,1.66.06,3.33.06,5,0,61.65,0,123.31,0,184.96,0,27.02-16.54,43.5-43.64,43.5-125.64,0-251.28,0-376.92,0-26.79,0-43.43-16.55-43.43-43.2,0-62.49-.03-124.97.01-187.46.01-17.34,14.9-29,30.83-24.31,9.45,2.78,16.39,11.38,17.07,21.23.14,1.99.08,4,.08,6,0,57.65,0,115.31,0,172.96v6.56Z"/>
      <path d="m208.01,81.89c-16.85,16.91-32.64,32.69-48.35,48.53-5.87,5.92-12.73,8.97-21.14,7.92-9.02-1.14-15.51-6.02-19.03-14.27-3.6-8.44-2.51-16.63,3.04-24.05,1.29-1.72,2.88-3.23,4.41-4.76,28.5-28.52,57-57.03,85.52-85.54,12.97-12.96,26.15-12.98,39.09-.04,28.4,28.38,56.79,56.78,85.17,85.18,1.41,1.41,2.84,2.83,4.12,4.36,7.98,9.54,7.43,23.5-1.24,32.27-8.82,8.92-23.16,9.73-32.57,1.23-7.9-7.14-15.23-14.91-22.77-22.45-9.06-9.07-18.08-18.19-28.26-28.44v6.78c0,84.47,0,168.94,0,253.4,0,13.16-6.7,22.37-18.29,25.31-14.38,3.65-28.76-6.88-29.64-21.74-.12-1.99-.06-4-.06-6,0-83.64,0-167.27,0-250.91,0-1.78,0-3.56,0-6.79Z"/>
    </g>
  </g>
</svg>