<?xml version="1.0" encoding="UTF-8"?>
<svg width="921px" height="429px" viewBox="0 0 921 429" version="1.1" xmlns="http://www.w3.org/2000/svg" xmlns:xlink="http://www.w3.org/1999/xlink">
    <!-- Generator: Sketch 52.1 (67048) - http://www.bohemiancoding.com/sketch -->
    <title>Path</title>
    <desc>Created with Sketch.</desc>
    <g id="Page-1" stroke="none" stroke-width="1" fill="none" fill-rule="evenodd">
        <polygon id="Path" fill="#67B7DC" points="0 365.6 5 375.4 10 355.9 15 351 20 341.2 25 365.6 30 321.7 35 316.8 40 331.4 45 346 50 350.9 55 341.1 60 326.5 64 302.1 69 311.9 74 287.5 79 272.9 84 341.2 89 311.9 94 321.7 99 341.2 104 336.3 109 360.7 114 355.8 119 370.4 123 389.9 128 385 133 389.9 138 394.8 143 404.6 148 375.3 153 365.5 158 341.1 163 331.3 168 287.4 173 267.9 178 224 183 258.1 187 277.6 192 199.6 197 175.2 202 204.5 207 228.9 212 219.1 217 233.7 222 238.6 227 263 232 287.4 237 263 242 248.4 246 224 251 189.9 256 204.5 261 199.6 266 160.6 271 141.1 276 146 281 150.9 286 131.4 291 141.2 296 102.2 301 112 306 131.5 310 107.1 315 92.5 320 82.7 325 102.2 330 121.7 335 204.6 340 272.9 345 326.6 350 341.2 355 326.6 360 292.5 365 297.4 369 253.5 374 268.1 379 277.9 384 282.8 389 263.3 394 243.8 399 248.7 404 214.6 409 190.2 414 170.7 419 151.2 424 136.6 429 131.7 433 92.7 438 102.5 443 78.1 448 53.7 453 63.5 458 87.9 463 78.1 468 87.9 473 78.1 478 73.2 483 102.5 488 97.6 492 112.2 497 82.9 502 63.4 507 68.3 512 82.9 517 58.5 522 53.6 527 34.1 532 24.3 537 38.9 542 34 547 4.7 552 29.1 556 9.6 561 38.9 566 4.8 571 24.3 576 14.5 581 19.4 586 29.2 591 73.1 596 82.9 601 63.4 606 43.9 611 87.8 615 73.2 620 131.7 625 126.8 630 107.3 635 112.2 640 73.2 645 43.9 650 48.8 655 48.8 660 48.8 665 68.3 670 73.2 675 63.4 679 87.8 684 53.7 689 102.5 694 126.9 699 117.1 704 131.7 709 141.5 714 170.8 719 165.9 724 156.1 729 141.5 734 146.4 738 161 743 175.6 748 165.8 753 185.3 758 185.3 763 180.4 768 175.5 773 146.2 778 136.4 783 102.3 788 116.9 793 107.1 798 136.4 802 121.8 807 131.6 812 136.5 817 112.1 822 63.3 827 53.5 832 48.6 837 87.6 842 87.6 847 73 852 82.8 857 68.2 861 48.7 866 14.6 871 29.2 876 24.3 881 -0.1 886 14.5 891 14.5 896 38.9 901 4.8 906 19.4 911 24.3 916 19.4 921 34 921 429 0 429"></polygon>
    </g>
</svg>