<?xml version="1.0" encoding="UTF-8"?>
<svg id="Ebene_2" data-name="Ebene 2" xmlns="http://www.w3.org/2000/svg" viewBox="0 0 383.32 383.19">
  <g id="Ebene_1-2" data-name="Ebene 1">
    <path d="m367.63,383.19h-6.74c-5.75-1.55-9.97-5.26-14.07-9.38-31.69-31.81-63.47-63.53-95.23-95.28-.86-.86-1.78-1.67-2.75-2.58-.76.53-1.37.95-1.97,1.38-36.56,26.64-77.08,36.15-121.66,28.11-59.59-10.75-109.16-58.83-121.48-118.02C2.16,179.88,1.23,172.21,0,164.6,0,157.61,0,150.62,0,143.64c.23-1.2.46-2.39.7-3.59,2.31-11.33,3.5-23.02,7.1-33.92C32.57,31.19,107.81-12.27,185.33,3.06c95.53,18.9,150.09,124.73,109.76,213.37-5.13,11.26-11.96,21.75-18.46,33.43.23.18,1.42.9,2.37,1.86,19.16,19.12,38.3,38.26,57.44,57.39,13.67,13.67,27.42,27.26,40.99,41.03,9.77,9.92,6.99,25.7-5.33,31.28-1.45.66-2.97,1.18-4.46,1.76ZM38.21,154.01c-.14,63.68,51.98,115.86,115.9,116.05,63.8.19,115.98-51.87,116.1-115.8.11-63.85-51.93-115.98-115.85-116.03-63.83-.05-116.02,51.97-116.15,115.78Z"/>
  </g>
</svg>